<?xml version="1.0" standalone="no"?>
<!DOCTYPE svg PUBLIC "-//W3C//DTD SVG 20010904//EN"
 "http://www.w3.org/TR/2001/REC-SVG-20010904/DTD/svg10.dtd">
<svg version="1.0" xmlns="http://www.w3.org/2000/svg"
 width="200.000000pt" height="200.000000pt" viewBox="0 0 200.000000 200.000000"
 preserveAspectRatio="xMidYMid meet">
<metadata>
Created by potrace 1.11, written by Peter Selinger 2001-2013
</metadata>
<g transform="translate(0.000000,200.000000) scale(0.100000,-0.100000)"
fill="#000000" stroke="none">
<path d="M1182 1578 c-11 -24 -68 -141 -126 -261 -93 -193 -126 -243 -126
-193 0 7 -22 55 -48 107 l-49 94 -156 3 -157 3 -95 -197 c-52 -108 -95 -197
-95 -199 0 -1 -37 -78 -81 -171 -45 -93 -105 -220 -135 -281 l-53 -113 165 0
164 0 61 128 c34 70 90 188 126 262 35 74 74 155 86 179 l22 44 27 -59 c15
-33 25 -65 23 -72 -3 -7 4 -18 15 -24 15 -10 17 -15 7 -27 -9 -12 -9 -13 1 -7
6 4 12 3 12 -2 0 -15 49 -28 102 -27 25 0 44 -3 42 -7 -3 -5 -1 -8 5 -8 5 0
11 5 13 12 3 8 7 6 10 -4 5 -13 1 -15 -20 -13 -24 2 -25 2 -7 -11 14 -10 22
-11 32 -2 7 6 16 8 19 6 3 -3 -9 -16 -27 -29 -27 -19 -32 -20 -26 -5 4 9 3 15
-2 11 -5 -3 -12 3 -16 14 -6 19 -45 26 -45 8 0 -4 -5 -5 -11 -1 -8 4 -7 9 2
15 10 6 8 8 -7 7 -11 -1 -26 -8 -34 -16 -11 -12 -9 -13 11 -7 22 7 23 7 9 -10
-9 -11 -10 -16 -2 -11 7 4 12 2 12 -4 0 -7 6 -10 13 -7 6 2 11 9 10 15 -2 6 6
10 17 9 11 -1 20 -7 20 -14 0 -7 -3 -12 -7 -11 -5 0 -19 -4 -33 -10 -17 -7
-20 -11 -8 -11 9 -1 19 3 22 8 7 10 25 9 43 -2 6 -4 14 -3 18 2 3 6 13 7 22 4
10 -4 14 -2 10 4 -4 6 1 17 10 24 14 12 15 11 9 -7 -4 -14 -2 -21 7 -21 9 0
12 7 9 19 -2 10 1 18 7 18 7 0 10 -4 6 -9 -3 -6 3 -8 14 -6 15 3 18 0 14 -12
-4 -11 -2 -14 5 -9 7 4 12 15 13 24 0 11 2 12 6 4 2 -7 14 -17 26 -23 12 -7
19 -8 15 -4 -4 5 -2 15 5 23 10 13 9 14 -2 7 -11 -6 -13 -4 -8 8 3 9 1 19 -5
23 -7 5 -8 2 -3 -6 5 -9 4 -11 -3 -6 -7 4 -12 3 -12 -1 0 -5 -9 -9 -21 -10
-18 -2 -19 0 -7 14 9 12 10 15 1 9 -7 -4 -13 -3 -13 2 0 4 20 8 45 8 24 0 47
2 49 5 3 2 55 108 117 234 62 127 116 232 121 233 4 2 5 9 2 14 -4 7 -2 8 5 4
6 -4 9 -11 6 -16 -3 -4 -2 -10 2 -12 7 -3 40 -67 40 -78 1 -3 17 -35 38 -72
20 -37 34 -72 31 -77 -3 -5 1 -12 10 -15 9 -3 14 -13 11 -20 -3 -8 1 -17 9
-20 9 -3 12 -10 9 -16 -4 -6 -10 -8 -15 -5 -5 3 -11 1 -15 -4 -3 -6 3 -8 14
-6 26 5 55 -37 38 -55 -9 -10 -9 -11 0 -6 8 5 19 -7 30 -34 10 -22 25 -41 33
-41 57 -5 303 -3 311 2 6 3 0 25 -15 52 -13 26 -22 47 -19 47 4 0 -1 8 -10 18
-8 9 -16 20 -16 25 0 4 -30 69 -67 145 -37 75 -67 143 -67 150 0 6 -3 12 -7
12 -3 0 -17 24 -30 53 -13 28 -54 116 -92 195 l-69 142 -163 0 -162 0 -22 -42z
m-212 -820 c0 -9 4 -8 10 2 8 12 10 12 10 1 0 -11 3 -11 15 -1 8 7 15 9 16 4
0 -5 2 -17 4 -27 3 -14 0 -16 -10 -7 -7 6 -17 10 -21 9 -14 -3 -44 12 -44 22
0 5 5 9 10 9 6 0 10 -6 10 -12z m115 -38 c3 -5 1 -10 -4 -10 -6 0 -11 5 -11
10 0 6 2 10 4 10 3 0 8 -4 11 -10z"/>
<path d="M1590 761 c0 -6 4 -13 10 -16 6 -3 7 1 4 9 -7 18 -14 21 -14 7z"/>
<path d="M1629 750 c13 -11 28 -20 35 -19 6 0 1 5 -11 11 -13 6 -23 15 -23 20
0 4 -6 8 -12 8 -7 -1 -2 -10 11 -20z"/>
<path d="M1660 758 c0 -4 7 -8 15 -8 8 0 15 4 15 8 0 5 -7 9 -15 9 -8 0 -15
-4 -15 -9z"/>
<path d="M1706 761 c2 -2 -1 -10 -7 -18 -9 -9 -8 -13 0 -13 6 0 11 4 11 9 0
17 40 19 49 3 9 -15 10 -14 8 3 -1 16 -8 20 -33 20 -18 0 -30 -2 -28 -4z"/>
<path d="M1780 758 c0 -4 7 -8 15 -8 8 0 15 4 15 8 0 5 -7 9 -15 9 -8 0 -15
-4 -15 -9z"/>
<path d="M1821 748 c-7 -12 -8 -18 -1 -18 5 0 10 4 10 9 0 17 40 19 49 3 9
-15 10 -14 8 3 -1 27 -50 28 -66 3z"/>
<path d="M1900 756 c0 -2 7 -7 16 -10 8 -3 12 -2 9 4 -6 10 -25 14 -25 6z"/>
<path d="M1119 713 c-13 -16 -12 -17 4 -4 16 13 21 21 13 21 -2 0 -10 -8 -17
-17z"/>
<path d="M1010 691 c0 -6 4 -13 10 -16 6 -3 7 1 4 9 -7 18 -14 21 -14 7z"/>
<path d="M1050 686 c0 -2 7 -7 16 -10 8 -3 12 -2 9 4 -6 10 -25 14 -25 6z"/>
</g>
</svg>
